<svg width="312" height="311" viewBox="0 0 312 311" fill="none" xmlns="http://www.w3.org/2000/svg">
<circle cx="155.672" cy="155.485" r="148.985" stroke="#0CAD4B" stroke-width="13"/>
<mask id="path-2-inside-1_291_2224" fill="white">
<path d="M210.471 211.284C199.812 221.943 186.231 229.202 171.447 232.143C156.663 235.083 141.338 233.574 127.412 227.805C113.485 222.037 101.582 212.268 93.207 199.735C84.8324 187.201 80.3624 172.465 80.3624 157.391C80.3624 142.317 84.8324 127.582 93.207 115.048C101.582 102.514 113.485 92.7457 127.412 86.9771C141.338 81.2085 156.663 79.6992 171.447 82.64C186.231 85.5808 199.812 92.8397 210.471 103.499L199.711 114.258C191.18 105.728 180.311 99.918 168.478 97.5643C156.646 95.2107 144.381 96.4187 133.235 101.036C122.089 105.652 112.562 113.471 105.859 123.502C99.1566 133.533 95.5791 145.327 95.5791 157.391C95.5791 169.456 99.1566 181.249 105.859 191.281C112.562 201.312 122.089 209.13 133.235 213.747C144.381 218.364 156.646 219.572 168.478 217.218C180.311 214.865 191.18 209.055 199.711 200.524L210.471 211.284Z"/>
</mask>
<path d="M210.471 211.284C199.812 221.943 186.231 229.202 171.447 232.143C156.663 235.083 141.338 233.574 127.412 227.805C113.485 222.037 101.582 212.268 93.207 199.735C84.8324 187.201 80.3624 172.465 80.3624 157.391C80.3624 142.317 84.8324 127.582 93.207 115.048C101.582 102.514 113.485 92.7457 127.412 86.9771C141.338 81.2085 156.663 79.6992 171.447 82.64C186.231 85.5808 199.812 92.8397 210.471 103.499L199.711 114.258C191.18 105.728 180.311 99.918 168.478 97.5643C156.646 95.2107 144.381 96.4187 133.235 101.036C122.089 105.652 112.562 113.471 105.859 123.502C99.1566 133.533 95.5791 145.327 95.5791 157.391C95.5791 169.456 99.1566 181.249 105.859 191.281C112.562 201.312 122.089 209.13 133.235 213.747C144.381 218.364 156.646 219.572 168.478 217.218C180.311 214.865 191.18 209.055 199.711 200.524L210.471 211.284Z" stroke="white" stroke-width="37.3376" mask="url(#path-2-inside-1_291_2224)"/>
<rect x="48.7261" y="129.807" width="102.231" height="13.073" fill="white"/>
<rect x="48.7261" y="170.074" width="102.231" height="13.073" fill="white"/>
</svg>
