<svg width="312" height="311" viewBox="0 0 312 311" fill="none" xmlns="http://www.w3.org/2000/svg">
<circle cx="156.122" cy="155.485" r="148.985" stroke="#0CAD4B" stroke-width="13"/>
<path d="M179.345 99.0678C182.33 95.6632 184.605 91.7087 186.041 87.4312C187.477 83.1537 188.046 78.6375 187.713 74.1421C178.551 74.8741 170.046 79.1394 164.03 86.0189C161.15 89.3161 158.967 93.1519 157.611 97.2992C156.255 101.446 155.753 105.821 156.136 110.163C160.605 110.2 165.023 109.219 169.048 107.295C173.073 105.371 176.596 102.556 179.345 99.0678V99.0678ZM199.239 157.202C199.292 151.215 200.885 145.339 203.869 140.131C206.852 134.922 211.127 130.551 216.291 127.432C213.032 122.784 208.724 118.952 203.709 116.24C198.694 113.527 193.109 112.009 187.397 111.804C175.082 110.554 163.715 118.915 157.162 118.915C150.61 118.915 141.374 111.96 131.111 112.117C124.402 112.335 117.865 114.272 112.137 117.736C106.409 121.201 101.686 126.076 98.429 131.885C84.535 155.795 94.8765 191.348 108.77 210.648C115.086 220.102 122.98 230.807 133.401 230.416C143.821 230.026 147.216 224.009 159.294 224.009C171.372 224.009 175.082 230.416 185.345 230.182C195.608 229.948 202.87 220.493 209.501 211.038C214.199 204.174 217.868 196.674 220.396 188.769C214.139 186.128 208.801 181.731 205.042 176.121C201.282 170.511 199.264 163.934 199.239 157.202V157.202Z" fill="white"/>
</svg>
