<svg width="311" height="311" viewBox="0 0 311 311" fill="none" xmlns="http://www.w3.org/2000/svg">
<circle cx="155.515" cy="155.485" r="148.985" stroke="#0CAD4B" stroke-width="13"/>
<path d="M130.248 166.037C136.277 166.037 141.165 161.149 141.165 155.12C141.165 149.091 136.277 144.204 130.248 144.204C124.219 144.204 119.331 149.091 119.331 155.12C119.331 161.149 124.219 166.037 130.248 166.037Z" fill="white"/>
<path d="M180.783 166.037C186.812 166.037 191.7 161.149 191.7 155.12C191.7 149.091 186.812 144.204 180.783 144.204C174.754 144.204 169.866 149.091 169.866 155.12C169.866 161.149 174.754 166.037 180.783 166.037Z" fill="white"/>
<path d="M142.882 187.912C148.911 187.912 153.798 183.024 153.798 176.995C153.798 170.966 148.911 166.079 142.882 166.079C136.853 166.079 131.965 170.966 131.965 176.995C131.965 183.024 136.853 187.912 142.882 187.912Z" fill="white"/>
<path d="M168.149 144.161C174.178 144.161 179.066 139.274 179.066 133.245C179.066 127.216 174.178 122.328 168.149 122.328C162.12 122.328 157.233 127.216 157.233 133.245C157.233 139.274 162.12 144.161 168.149 144.161Z" fill="white"/>
<path d="M168.149 187.912C174.178 187.912 179.066 183.024 179.066 176.995C179.066 170.966 174.178 166.079 168.149 166.079C162.12 166.079 157.233 170.966 157.233 176.995C157.233 183.024 162.12 187.912 168.149 187.912Z" fill="white"/>
<path d="M142.882 144.161C148.911 144.161 153.798 139.274 153.798 133.245C153.798 127.216 148.911 122.328 142.882 122.328C136.853 122.328 131.965 127.216 131.965 133.245C131.965 139.274 136.853 144.161 142.882 144.161Z" fill="white"/>
<path d="M211.327 161.067C214.488 161.067 217.051 158.505 217.051 155.344C217.051 152.183 214.488 149.62 211.327 149.62C208.166 149.62 205.604 152.183 205.604 155.344C205.604 158.505 208.166 161.067 211.327 161.067Z" fill="white"/>
<path d="M99.7035 161.067C102.865 161.067 105.427 158.505 105.427 155.344C105.427 152.183 102.865 149.62 99.7035 149.62C96.5425 149.62 93.9799 152.183 93.9799 155.344C93.9799 158.505 96.5425 161.067 99.7035 161.067Z" fill="white"/>
<path d="M79.4058 158.973C81.4104 158.973 83.0354 157.348 83.0354 155.343C83.0354 153.339 81.4104 151.714 79.4058 151.714C77.4013 151.714 75.7762 153.339 75.7762 155.343C75.7762 157.348 77.4013 158.973 79.4058 158.973Z" fill="white"/>
<path d="M231.625 158.973C233.63 158.973 235.255 157.348 235.255 155.343C235.255 153.339 233.63 151.714 231.625 151.714C229.62 151.714 227.995 153.339 227.995 155.343C227.995 157.348 229.62 158.973 231.625 158.973Z" fill="white"/>
<path d="M183.421 112.724C186.582 112.724 189.145 110.161 189.145 107C189.145 103.839 186.582 101.276 183.421 101.276C180.26 101.276 177.698 103.839 177.698 107C177.698 110.161 180.26 112.724 183.421 112.724Z" fill="white"/>
<path d="M127.609 209.411C130.77 209.411 133.333 206.848 133.333 203.687C133.333 200.526 130.77 197.963 127.609 197.963C124.448 197.963 121.886 200.526 121.886 203.687C121.886 206.848 124.448 209.411 127.609 209.411Z" fill="white"/>
<path d="M117.461 224.878C119.465 224.878 121.09 223.253 121.09 221.248C121.09 219.244 119.465 217.619 117.461 217.619C115.456 217.619 113.831 219.244 113.831 221.248C113.831 223.253 115.456 224.878 117.461 224.878Z" fill="white"/>
<path d="M193.57 93.0683C195.575 93.0683 197.2 91.4432 197.2 89.4387C197.2 87.4341 195.575 85.8091 193.57 85.8091C191.566 85.8091 189.941 87.4341 189.941 89.4387C189.941 91.4432 191.566 93.0683 193.57 93.0683Z" fill="white"/>
<path d="M127.609 112.724C130.77 112.724 133.333 110.161 133.333 107C133.333 103.839 130.77 101.276 127.609 101.276C124.448 101.276 121.886 103.839 121.886 107C121.886 110.161 124.448 112.724 127.609 112.724Z" fill="white"/>
<path d="M183.421 209.411C186.582 209.411 189.145 206.848 189.145 203.687C189.145 200.526 186.582 197.963 183.421 197.963C180.26 197.963 177.698 200.526 177.698 203.687C177.698 206.848 180.26 209.411 183.421 209.411Z" fill="white"/>
<path d="M193.57 224.878C195.575 224.878 197.2 223.253 197.2 221.248C197.2 219.244 195.575 217.619 193.57 217.619C191.566 217.619 189.941 219.244 189.941 221.248C189.941 223.253 191.566 224.878 193.57 224.878Z" fill="white"/>
<path d="M117.461 93.0683C119.465 93.0683 121.09 91.4432 121.09 89.4387C121.09 87.4341 119.465 85.8091 117.461 85.8091C115.456 85.8091 113.831 87.4341 113.831 89.4387C113.831 91.4432 115.456 93.0683 117.461 93.0683Z" fill="white"/>
<path d="M155.515 118.252C159.155 118.252 162.105 115.302 162.105 111.663C162.105 108.024 159.155 105.074 155.515 105.074C151.876 105.074 148.926 108.024 148.926 111.663C148.926 115.302 151.876 118.252 155.515 118.252Z" fill="white"/>
<path d="M155.515 90.1226C158.006 90.1226 160.024 88.1038 160.024 85.6136C160.024 83.1233 158.006 81.1045 155.515 81.1045C153.025 81.1045 151.006 83.1233 151.006 85.6136C151.006 88.1038 153.025 90.1226 155.515 90.1226Z" fill="white"/>
<path d="M155.515 205.613C159.155 205.613 162.105 202.663 162.105 199.024C162.105 195.385 159.155 192.435 155.515 192.435C151.876 192.435 148.926 195.385 148.926 199.024C148.926 202.663 151.876 205.613 155.515 205.613Z" fill="white"/>
<path d="M155.515 229.583C158.006 229.583 160.024 227.564 160.024 225.074C160.024 222.583 158.006 220.564 155.515 220.564C153.025 220.564 151.006 222.583 151.006 225.074C151.006 227.564 153.025 229.583 155.515 229.583Z" fill="white"/>
<path d="M117.684 140.099C121.323 140.099 124.273 137.149 124.273 133.51C124.273 129.871 121.323 126.921 117.684 126.921C114.045 126.921 111.095 129.871 111.095 133.51C111.095 137.149 114.045 140.099 117.684 140.099Z" fill="white"/>
<path d="M95.1247 124.981C97.6149 124.981 99.6337 122.962 99.6337 120.471C99.6337 117.981 97.6149 115.962 95.1247 115.962C92.6344 115.962 90.6156 117.981 90.6156 120.471C90.6156 122.962 92.6344 124.981 95.1247 124.981Z" fill="white"/>
<path d="M193.347 183.766C196.986 183.766 199.936 180.816 199.936 177.177C199.936 173.538 196.986 170.588 193.347 170.588C189.708 170.588 186.758 173.538 186.758 177.177C186.758 180.816 189.708 183.766 193.347 183.766Z" fill="white"/>
<path d="M215.906 194.725C218.396 194.725 220.415 192.706 220.415 190.216C220.415 187.725 218.396 185.707 215.906 185.707C213.416 185.707 211.397 187.725 211.397 190.216C211.397 192.706 213.416 194.725 215.906 194.725Z" fill="white"/>
<path d="M117.684 183.766C121.323 183.766 124.273 180.816 124.273 177.177C124.273 173.538 121.323 170.588 117.684 170.588C114.045 170.588 111.095 173.538 111.095 177.177C111.095 180.816 114.045 183.766 117.684 183.766Z" fill="white"/>
<path d="M95.1247 194.725C97.6149 194.725 99.6337 192.706 99.6337 190.216C99.6337 187.725 97.6149 185.707 95.1247 185.707C92.6344 185.707 90.6156 187.725 90.6156 190.216C90.6156 192.706 92.6344 194.725 95.1247 194.725Z" fill="white"/>
<path d="M193.347 140.099C196.986 140.099 199.936 137.149 199.936 133.51C199.936 129.871 196.986 126.921 193.347 126.921C189.708 126.921 186.758 129.871 186.758 133.51C186.758 137.149 189.708 140.099 193.347 140.099Z" fill="white"/>
<path d="M215.906 124.981C218.396 124.981 220.415 122.962 220.415 120.471C220.415 117.981 218.396 115.962 215.906 115.962C213.416 115.962 211.397 117.981 211.397 120.471C211.397 122.962 213.416 124.981 215.906 124.981Z" fill="white"/>
</svg>
