<svg width="312" height="311" viewBox="0 0 312 311" fill="none" xmlns="http://www.w3.org/2000/svg">
<circle cx="155.9" cy="155.485" r="148.985" stroke="#0CAD4B" stroke-width="13"/>
<path d="M201.798 155.473L221.976 135.293L242.156 155.473L221.976 175.652L201.798 155.473ZM67.5223 155.484L87.7009 135.306L107.879 155.484L87.7009 175.663L67.5223 155.484ZM154.833 202.457L121.384 169.007L101.208 189.183L154.833 242.807L208.458 189.183L188.283 169.007L154.833 202.457ZM154.833 108.512L188.283 141.961L208.458 121.786L154.833 68.1611L101.208 121.786L121.384 141.961L154.833 108.512Z" fill="white"/>
<path d="M134.896 155.484L154.822 135.558L174.749 155.484L154.822 175.411L134.896 155.484Z" fill="white"/>
</svg>
