<svg width="311" height="311" viewBox="0 0 311 311" fill="none" xmlns="http://www.w3.org/2000/svg">
<path d="M205.633 130.987C206.769 142.471 202.636 150.612 193.234 155.407C200.617 157.174 206.138 160.424 209.798 165.157C213.458 169.889 214.878 176.641 214.058 185.413C213.616 189.893 212.591 193.837 210.981 197.244C209.372 200.652 207.337 203.46 204.876 205.668C202.415 207.877 199.355 209.723 195.695 211.206C192.035 212.689 188.201 213.777 184.194 214.471C180.187 215.165 175.597 215.639 170.422 215.891V240.028H155.846V216.27C150.797 216.27 146.948 216.238 144.298 216.175V240.028H129.721V215.891C128.585 215.891 126.882 215.875 124.61 215.844C122.338 215.812 120.603 215.796 119.404 215.796H100.473L103.407 198.475H113.914C117.069 198.475 118.899 196.866 119.404 193.647V155.597H120.918C120.54 155.534 120.035 155.502 119.404 155.502V128.336C118.584 124.045 115.776 121.9 110.98 121.9H100.473V106.377L120.54 106.471C124.578 106.471 127.639 106.44 129.721 106.377V82.5239H144.298V105.903C149.472 105.777 153.321 105.714 155.846 105.714V82.5239H170.422V106.377C175.407 106.818 179.825 107.528 183.674 108.506C187.523 109.484 191.088 110.904 194.37 112.766C197.651 114.627 200.254 117.088 202.179 120.149C204.103 123.209 205.255 126.822 205.633 130.987ZM185.283 182.573C185.283 180.301 184.81 178.282 183.863 176.515C182.917 174.748 181.749 173.297 180.361 172.161C178.973 171.025 177.158 170.063 174.918 169.274C172.678 168.485 170.612 167.902 168.719 167.523C166.825 167.144 164.491 166.86 161.714 166.671C158.938 166.482 156.761 166.387 155.183 166.387C153.605 166.387 151.57 166.419 149.078 166.482C146.585 166.545 145.087 166.576 144.582 166.576V198.569C145.087 198.569 146.254 198.585 148.084 198.617C149.914 198.648 151.428 198.664 152.627 198.664C153.826 198.664 155.499 198.617 157.644 198.522C159.79 198.427 161.635 198.301 163.181 198.144C164.727 197.986 166.526 197.718 168.577 197.339C170.627 196.96 172.378 196.519 173.83 196.014C175.281 195.509 176.78 194.846 178.326 194.026C179.872 193.206 181.118 192.259 182.065 191.186C183.011 190.114 183.784 188.852 184.384 187.4C184.983 185.949 185.283 184.34 185.283 182.573ZM178.563 137.518C178.563 135.435 178.168 133.59 177.379 131.981C176.591 130.371 175.628 129.046 174.492 128.005C173.357 126.964 171.842 126.08 169.949 125.355C168.056 124.629 166.321 124.108 164.743 123.793C163.165 123.477 161.225 123.225 158.922 123.036C156.619 122.846 154.789 122.768 153.432 122.799C152.075 122.831 150.371 122.862 148.321 122.894C146.27 122.925 145.024 122.941 144.582 122.941V152C144.897 152 145.986 152.016 147.847 152.047C149.709 152.079 151.176 152.079 152.249 152.047C153.321 152.016 154.899 151.952 156.981 151.858C159.064 151.763 160.799 151.59 162.187 151.337C163.576 151.085 165.201 150.738 167.062 150.296C168.924 149.854 170.454 149.271 171.653 148.545C172.852 147.819 174.019 146.967 175.155 145.989C176.291 145.011 177.143 143.796 177.711 142.345C178.279 140.894 178.563 139.285 178.563 137.518Z" fill="white"/>
<circle cx="155.485" cy="155.485" r="148.985" stroke="#0CAD4B" stroke-width="13"/>
</svg>
