<svg width="179" height="179" viewBox="0 0 179 179" fill="none" xmlns="http://www.w3.org/2000/svg">
<path d="M64.248 100.178C70.2771 100.178 75.1646 95.2905 75.1646 89.2614C75.1646 83.2323 70.2771 78.3447 64.248 78.3447C58.2189 78.3447 53.3313 83.2323 53.3313 89.2614C53.3313 95.2905 58.2189 100.178 64.248 100.178Z" fill="white"/>
<path d="M114.783 100.178C120.812 100.178 125.7 95.2905 125.7 89.2614C125.7 83.2323 120.812 78.3447 114.783 78.3447C108.754 78.3447 103.866 83.2323 103.866 89.2614C103.866 95.2905 108.754 100.178 114.783 100.178Z" fill="white"/>
<path d="M76.8817 122.053C82.9108 122.053 87.7984 117.166 87.7984 111.136C87.7984 105.107 82.9108 100.22 76.8817 100.22C70.8526 100.22 65.965 105.107 65.965 111.136C65.965 117.166 70.8526 122.053 76.8817 122.053Z" fill="white"/>
<path d="M102.149 78.3026C108.178 78.3026 113.066 73.415 113.066 67.3859C113.066 61.3568 108.178 56.4692 102.149 56.4692C96.1201 56.4692 91.2325 61.3568 91.2325 67.3859C91.2325 73.415 96.1201 78.3026 102.149 78.3026Z" fill="white"/>
<path d="M102.149 122.053C108.178 122.053 113.066 117.166 113.066 111.136C113.066 105.107 108.178 100.22 102.149 100.22C96.1201 100.22 91.2325 105.107 91.2325 111.136C91.2325 117.166 96.1201 122.053 102.149 122.053Z" fill="white"/>
<path d="M76.8817 78.3026C82.9108 78.3026 87.7984 73.415 87.7984 67.3859C87.7984 61.3568 82.9108 56.4692 76.8817 56.4692C70.8526 56.4692 65.965 61.3568 65.965 67.3859C65.965 73.415 70.8526 78.3026 76.8817 78.3026Z" fill="white"/>
<path d="M145.327 95.2084C148.488 95.2084 151.051 92.6458 151.051 89.4848C151.051 86.3238 148.488 83.7612 145.327 83.7612C142.166 83.7612 139.604 86.3238 139.604 89.4848C139.604 92.6458 142.166 95.2084 145.327 95.2084Z" fill="white"/>
<path d="M33.7035 95.2084C36.8645 95.2084 39.4271 92.6458 39.4271 89.4848C39.4271 86.3238 36.8645 83.7612 33.7035 83.7612C30.5425 83.7612 27.9799 86.3238 27.9799 89.4848C27.9799 92.6458 30.5425 95.2084 33.7035 95.2084Z" fill="white"/>
<path d="M13.4058 93.1141C15.4104 93.1141 17.0354 91.4891 17.0354 89.4846C17.0354 87.48 15.4104 85.855 13.4058 85.855C11.4013 85.855 9.77625 87.48 9.77625 89.4846C9.77625 91.4891 11.4013 93.1141 13.4058 93.1141Z" fill="white"/>
<path d="M165.625 93.1141C167.63 93.1141 169.255 91.4891 169.255 89.4846C169.255 87.48 167.63 85.855 165.625 85.855C163.62 85.855 161.995 87.48 161.995 89.4846C161.995 91.4891 163.62 93.1141 165.625 93.1141Z" fill="white"/>
<path d="M117.421 46.8651C120.582 46.8651 123.145 44.3026 123.145 41.1415C123.145 37.9805 120.582 35.418 117.421 35.418C114.26 35.418 111.698 37.9805 111.698 41.1415C111.698 44.3026 114.26 46.8651 117.421 46.8651Z" fill="white"/>
<path d="M61.6094 143.552C64.7705 143.552 67.333 140.989 67.333 137.828C67.333 134.667 64.7705 132.104 61.6094 132.104C58.4484 132.104 55.8859 134.667 55.8859 137.828C55.8859 140.989 58.4484 143.552 61.6094 143.552Z" fill="white"/>
<path d="M51.4606 159.019C53.4652 159.019 55.0902 157.394 55.0902 155.389C55.0902 153.385 53.4652 151.76 51.4606 151.76C49.4561 151.76 47.8311 153.385 47.8311 155.389C47.8311 157.394 49.4561 159.019 51.4606 159.019Z" fill="white"/>
<path d="M127.57 27.2094C129.575 27.2094 131.2 25.5843 131.2 23.5798C131.2 21.5752 129.575 19.9502 127.57 19.9502C125.566 19.9502 123.941 21.5752 123.941 23.5798C123.941 25.5843 125.566 27.2094 127.57 27.2094Z" fill="white"/>
<path d="M61.6094 46.8651C64.7705 46.8651 67.333 44.3026 67.333 41.1415C67.333 37.9805 64.7705 35.418 61.6094 35.418C58.4484 35.418 55.8859 37.9805 55.8859 41.1415C55.8859 44.3026 58.4484 46.8651 61.6094 46.8651Z" fill="white"/>
<path d="M117.421 143.552C120.582 143.552 123.145 140.989 123.145 137.828C123.145 134.667 120.582 132.104 117.421 132.104C114.26 132.104 111.698 134.667 111.698 137.828C111.698 140.989 114.26 143.552 117.421 143.552Z" fill="white"/>
<path d="M127.57 159.019C129.575 159.019 131.2 157.394 131.2 155.389C131.2 153.385 129.575 151.76 127.57 151.76C125.566 151.76 123.941 153.385 123.941 155.389C123.941 157.394 125.566 159.019 127.57 159.019Z" fill="white"/>
<path d="M51.4606 27.2094C53.4652 27.2094 55.0902 25.5843 55.0902 23.5798C55.0902 21.5752 53.4652 19.9502 51.4606 19.9502C49.4561 19.9502 47.8311 21.5752 47.8311 23.5798C47.8311 25.5843 49.4561 27.2094 51.4606 27.2094Z" fill="white"/>
<path d="M89.5155 52.393C93.1545 52.393 96.1046 49.443 96.1046 45.8039C96.1046 42.1649 93.1545 39.2148 89.5155 39.2148C85.8764 39.2148 82.9264 42.1649 82.9264 45.8039C82.9264 49.443 85.8764 52.393 89.5155 52.393Z" fill="white"/>
<path d="M89.5153 24.2637C92.0056 24.2637 94.0244 22.245 94.0244 19.7547C94.0244 17.2644 92.0056 15.2456 89.5153 15.2456C87.0251 15.2456 85.0063 17.2644 85.0063 19.7547C85.0063 22.245 87.0251 24.2637 89.5153 24.2637Z" fill="white"/>
<path d="M89.5155 139.754C93.1545 139.754 96.1046 136.804 96.1046 133.165C96.1046 129.526 93.1545 126.576 89.5155 126.576C85.8764 126.576 82.9264 129.526 82.9264 133.165C82.9264 136.804 85.8764 139.754 89.5155 139.754Z" fill="white"/>
<path d="M89.5153 163.724C92.0056 163.724 94.0244 161.705 94.0244 159.215C94.0244 156.724 92.0056 154.706 89.5153 154.706C87.0251 154.706 85.0063 156.724 85.0063 159.215C85.0063 161.705 87.0251 163.724 89.5153 163.724Z" fill="white"/>
<path d="M51.684 74.2402C55.3231 74.2402 58.2731 71.2902 58.2731 67.6511C58.2731 64.0121 55.3231 61.062 51.684 61.062C48.0449 61.062 45.0949 64.0121 45.0949 67.6511C45.0949 71.2902 48.0449 74.2402 51.684 74.2402Z" fill="white"/>
<path d="M29.1247 59.1216C31.6149 59.1216 33.6337 57.1029 33.6337 54.6126C33.6337 52.1223 31.6149 50.1035 29.1247 50.1035C26.6344 50.1035 24.6156 52.1223 24.6156 54.6126C24.6156 57.1029 26.6344 59.1216 29.1247 59.1216Z" fill="white"/>
<path d="M127.347 117.907C130.986 117.907 133.936 114.957 133.936 111.318C133.936 107.679 130.986 104.729 127.347 104.729C123.708 104.729 120.758 107.679 120.758 111.318C120.758 114.957 123.708 117.907 127.347 117.907Z" fill="white"/>
<path d="M149.906 128.866C152.396 128.866 154.415 126.847 154.415 124.357C154.415 121.866 152.396 119.848 149.906 119.848C147.416 119.848 145.397 121.866 145.397 124.357C145.397 126.847 147.416 128.866 149.906 128.866Z" fill="white"/>
<path d="M51.684 117.907C55.3231 117.907 58.2731 114.957 58.2731 111.318C58.2731 107.679 55.3231 104.729 51.684 104.729C48.0449 104.729 45.0949 107.679 45.0949 111.318C45.0949 114.957 48.0449 117.907 51.684 117.907Z" fill="white"/>
<path d="M29.1247 128.866C31.6149 128.866 33.6337 126.847 33.6337 124.357C33.6337 121.866 31.6149 119.848 29.1247 119.848C26.6344 119.848 24.6156 121.866 24.6156 124.357C24.6156 126.847 26.6344 128.866 29.1247 128.866Z" fill="white"/>
<path d="M127.347 74.2402C130.986 74.2402 133.936 71.2902 133.936 67.6511C133.936 64.0121 130.986 61.062 127.347 61.062C123.708 61.062 120.758 64.0121 120.758 67.6511C120.758 71.2902 123.708 74.2402 127.347 74.2402Z" fill="white"/>
<path d="M149.906 59.1216C152.396 59.1216 154.415 57.1029 154.415 54.6126C154.415 52.1223 152.396 50.1035 149.906 50.1035C147.416 50.1035 145.397 52.1223 145.397 54.6126C145.397 57.1029 147.416 59.1216 149.906 59.1216Z" fill="white"/>
</svg>
