<svg width="312" height="311" viewBox="0 0 312 311" fill="none" xmlns="http://www.w3.org/2000/svg">
<circle cx="156.143" cy="155.485" r="148.985" stroke="#0CAD4B" stroke-width="13"/>
<path d="M202.815 181.188C202.815 190.448 199.8 198.422 193.771 205.109C187.741 211.797 179.909 215.928 170.274 217.501V233.389C170.274 234.236 170.001 234.932 169.456 235.477C168.911 236.021 168.214 236.294 167.365 236.294H155.094C154.306 236.294 153.625 236.006 153.049 235.431C152.473 234.856 152.186 234.176 152.186 233.389V217.501C148.186 216.957 144.323 216.019 140.596 214.687C136.869 213.356 133.794 212.009 131.37 210.647C128.946 209.285 126.704 207.833 124.644 206.29C122.583 204.746 121.174 203.611 120.417 202.885C119.66 202.159 119.129 201.614 118.826 201.251C117.796 199.98 117.736 198.739 118.644 197.529L128.007 185.273C128.431 184.668 129.128 184.305 130.098 184.184C131.006 184.063 131.734 184.335 132.279 185.001L132.461 185.182C139.308 191.174 146.671 194.957 154.549 196.53C156.791 197.014 159.033 197.257 161.275 197.257C166.184 197.257 170.501 195.955 174.228 193.353C177.955 190.75 179.818 187.058 179.818 182.277C179.818 180.583 179.364 178.979 178.455 177.466C177.546 175.953 176.531 174.682 175.41 173.653C174.289 172.624 172.516 171.489 170.092 170.248C167.668 169.008 165.669 168.039 164.093 167.343C162.517 166.647 160.094 165.664 156.821 164.393C154.458 163.424 152.595 162.668 151.231 162.123C149.868 161.578 148.004 160.776 145.641 159.717C143.278 158.658 141.384 157.72 139.96 156.903C138.536 156.086 136.824 155.012 134.824 153.68C132.824 152.349 131.203 151.063 129.961 149.822C128.719 148.581 127.401 147.098 126.007 145.373C124.613 143.648 123.538 141.893 122.78 140.108C122.023 138.322 121.387 136.31 120.871 134.071C120.356 131.831 120.099 129.471 120.099 126.99C120.099 118.637 123.068 111.314 129.007 105.02C134.945 98.7254 142.672 94.6704 152.186 92.8547V76.5135C152.186 75.7267 152.473 75.0458 153.049 74.4708C153.625 73.8959 154.306 73.6084 155.094 73.6084H167.365C168.214 73.6084 168.911 73.8808 169.456 74.4255C170.001 74.9702 170.274 75.6662 170.274 76.5135V92.4915C173.728 92.8547 177.076 93.5507 180.318 94.5796C183.56 95.6085 186.196 96.6222 188.226 97.6208C190.256 98.6195 192.18 99.7543 193.998 101.025C195.816 102.296 196.998 103.174 197.543 103.658C198.089 104.142 198.543 104.566 198.907 104.929C199.937 106.018 200.088 107.168 199.361 108.379L191.998 121.633C191.514 122.541 190.817 123.025 189.908 123.086C189.059 123.267 188.241 123.056 187.454 122.45C187.272 122.269 186.832 121.906 186.136 121.361C185.439 120.816 184.257 120.014 182.591 118.955C180.924 117.896 179.152 116.928 177.273 116.05C175.395 115.172 173.137 114.386 170.501 113.69C167.865 112.994 165.275 112.646 162.73 112.646C156.973 112.646 152.276 113.947 148.641 116.549C145.005 119.152 143.187 122.511 143.187 126.626C143.187 128.2 143.444 129.653 143.959 130.984C144.474 132.316 145.368 133.571 146.641 134.752C147.913 135.932 149.11 136.93 150.231 137.747C151.352 138.565 153.049 139.503 155.321 140.562C157.594 141.621 159.427 142.438 160.821 143.013C162.214 143.588 164.335 144.42 167.184 145.51C170.395 146.72 172.849 147.673 174.546 148.369C176.243 149.065 178.546 150.124 181.454 151.547C184.363 152.969 186.651 154.255 188.317 155.405C189.984 156.555 191.862 158.068 193.953 159.944C196.043 161.82 197.649 163.742 198.77 165.709C199.891 167.676 200.846 169.991 201.633 172.654C202.421 175.317 202.815 178.162 202.815 181.188Z" fill="white"/>
</svg>
