<svg width="312" height="311" viewBox="0 0 312 311" fill="none" xmlns="http://www.w3.org/2000/svg">
<circle cx="156.429" cy="155.485" r="148.985" stroke="#0CAD4B" stroke-width="13"/>
<path d="M157.811 142.691H234.896C235.746 147.452 236.172 152.001 236.172 156.337C236.172 171.759 232.947 185.53 226.496 197.648C220.046 209.766 210.849 219.236 198.905 226.059C186.961 232.882 173.263 236.294 157.811 236.294C146.682 236.294 136.085 234.144 126.02 229.844C115.954 225.544 107.271 219.734 99.97 212.413C92.6691 205.093 86.8744 196.386 82.586 186.294C78.2975 176.201 76.1533 165.576 76.1533 154.418C76.1533 143.259 78.2975 132.634 82.586 122.541C86.8744 112.449 92.6691 103.743 99.97 96.422C107.271 89.1015 115.954 83.2913 126.02 78.9914C136.085 74.6915 146.682 72.5415 157.811 72.5415C179.075 72.5415 197.328 79.6843 212.568 93.97L190.346 115.399C181.627 106.941 170.782 102.712 157.811 102.712C148.667 102.712 140.214 105.022 132.452 109.642C124.69 114.261 118.541 120.534 114.005 128.458C109.468 136.383 107.2 145.036 107.2 154.418C107.2 163.799 109.468 172.452 114.005 180.377C118.541 188.302 124.69 194.574 132.452 199.194C140.214 203.813 148.667 206.123 157.811 206.123C163.977 206.123 169.648 205.27 174.823 203.565C179.997 201.859 184.25 199.727 187.581 197.168C190.913 194.609 193.819 191.695 196.3 188.426C198.781 185.157 200.606 182.065 201.776 179.151C202.945 176.237 203.743 173.465 204.168 170.835H157.811V142.691Z" fill="white"/>
</svg>
