<svg width="312" height="311" viewBox="0 0 312 311" fill="none" xmlns="http://www.w3.org/2000/svg">
<circle cx="155.629" cy="155.485" r="148.985" stroke="#0CAD4B" stroke-width="13"/>
<path d="M203.251 115.154H184.129C182.463 108.853 179.517 102.962 175.477 97.8481H203.251C205.545 97.8481 207.746 96.9365 209.369 95.3138C210.991 93.6911 211.903 91.4902 211.903 89.1953C211.903 86.9004 210.991 84.6996 209.369 83.0768C207.746 81.4541 205.545 80.5425 203.251 80.5425H108.076C105.781 80.5425 103.58 81.4541 101.958 83.0768C100.335 84.6996 99.4234 86.9004 99.4234 89.1953C99.4234 91.4902 100.335 93.6911 101.958 95.3138C103.58 96.9365 105.781 97.8481 108.076 97.8481H138.359C144.071 97.8682 149.661 99.5037 154.484 102.566C159.307 105.628 163.165 109.992 165.613 115.154H108.076C105.781 115.154 103.58 116.065 101.958 117.688C100.335 119.311 99.4234 121.512 99.4234 123.807C99.4234 126.101 100.335 128.302 101.958 129.925C103.58 131.548 105.781 132.459 108.076 132.459H168.641C167.604 139.646 164.019 146.222 158.54 150.986C153.061 155.751 146.052 158.389 138.791 158.418H108.076C107.673 158.377 107.267 158.377 106.864 158.418C106.291 158.329 105.707 158.329 105.134 158.418C104.544 158.619 103.989 158.911 103.49 159.283L102.452 159.889C101.978 160.317 101.57 160.813 101.24 161.36C100.951 161.743 100.69 162.148 100.462 162.571C100.385 163.088 100.385 163.612 100.462 164.129C99.8451 164.992 99.4852 166.012 99.4234 167.071C99.3829 167.474 99.3829 167.879 99.4234 168.282C99.3341 168.856 99.3341 169.439 99.4234 170.013C99.6243 170.602 99.9162 171.157 100.289 171.657C100.289 171.657 100.289 172.349 100.894 172.695L152.808 233.265C154.299 235.009 156.423 236.089 158.711 236.268C160.998 236.446 163.264 235.708 165.008 234.217C166.752 232.725 167.832 230.602 168.01 228.314C168.189 226.025 167.451 223.76 165.959 222.016L126.938 175.724H138.359C150.265 175.773 161.757 171.357 170.566 163.348C179.376 155.338 184.864 144.317 185.946 132.459H203.251C205.545 132.459 207.746 131.548 209.369 129.925C210.991 128.302 211.903 126.101 211.903 123.807C211.903 121.512 210.991 119.311 209.369 117.688C207.746 116.065 205.545 115.154 203.251 115.154Z" fill="white"/>
</svg>
