<svg width="142" height="155" viewBox="0 0 142 155" fill="none" xmlns="http://www.w3.org/2000/svg">
<path d="M141.702 32.9948C141.702 47.9444 130.58 62.4157 114.314 64.3292C111.444 64.688 108.454 64.688 105.584 65.286C96.2553 67.1995 92.189 78.5613 98.408 85.7371C100.92 88.727 104.507 89.8034 108.335 90.1622C112.281 90.6406 116.467 90.7602 120.175 92.0757C132.254 96.142 139.191 104.873 141.224 117.43C143.975 134.413 132.493 149.722 116.587 153.309C99.2452 157.256 81.3056 145.536 78.1961 128.074C76.761 120.42 78.3157 113.364 81.784 106.667C83.2192 103.796 84.4152 101.046 84.2956 97.6968C84.0564 92.4345 80.7077 88.129 75.4454 86.3351C70.9007 84.7803 65.758 86.2155 62.5289 90.1622C60.4957 92.6737 58.8214 95.5441 56.7882 98.0556C48.536 107.982 37.7723 111.45 25.3342 108.7C12.7765 105.71 4.64388 97.5772 1.53436 85.1391C-3.01033 67.4387 8.23179 49.4992 26.1714 46.1505C39.3271 43.6389 50.0908 47.9444 58.2234 58.7082C59.8978 60.9805 61.4525 63.6116 63.4857 65.5252C70.0635 72.103 81.9036 68.8739 84.176 59.9041C85.0132 56.4358 84.2956 53.0871 82.6212 49.858C79.6313 44.1173 77.4785 38.0178 77.7177 31.44C78.1961 16.2512 90.2754 3.21508 105.345 1.18193C122.327 -0.970819 137.995 10.1517 141.224 27.1345C141.463 29.0481 141.583 31.0812 141.702 32.9948V32.9948Z" fill="white"/>
</svg>
