<svg width="312" height="311" viewBox="0 0 312 311" fill="none" xmlns="http://www.w3.org/2000/svg">
<circle cx="156.208" cy="155.485" r="148.985" stroke="#0CAD4B" stroke-width="13"/>
<path d="M217.702 110.995C217.702 125.944 206.58 140.416 190.314 142.329C187.444 142.688 184.454 142.688 181.584 143.286C172.255 145.2 168.189 156.561 174.408 163.737C176.92 166.727 180.507 167.803 184.335 168.162C188.281 168.641 192.467 168.76 196.175 170.076C208.254 174.142 215.191 182.873 217.224 195.43C219.975 212.413 208.493 227.722 192.587 231.309C175.245 235.256 157.306 223.536 154.196 206.074C152.761 198.42 154.316 191.364 157.784 184.667C159.219 181.796 160.415 179.046 160.296 175.697C160.056 170.435 156.708 166.129 151.445 164.335C146.901 162.78 141.758 164.215 138.529 168.162C136.496 170.674 134.821 173.544 132.788 176.056C124.536 185.982 113.772 189.45 101.334 186.7C88.7765 183.71 80.6439 175.577 77.5344 163.139C72.9897 145.439 84.2318 127.499 102.171 124.15C115.327 121.639 126.091 125.944 134.223 136.708C135.898 138.98 137.453 141.612 139.486 143.525C146.064 150.103 157.904 146.874 160.176 137.904C161.013 134.436 160.296 131.087 158.621 127.858C155.631 122.117 153.479 116.018 153.718 109.44C154.196 94.2512 166.275 81.2151 181.345 79.1819C198.327 77.0292 213.995 88.1517 217.224 105.135C217.463 107.048 217.583 109.081 217.702 110.995V110.995Z" fill="white"/>
</svg>
